<svg width="64" height="64" viewBox="0 0 64 64" fill="none" xmlns="http://www.w3.org/2000/svg">
<rect width="63.9945" height="63.9945" rx="31.9973" fill="url(#paint0_linear_9_7828)"/>
<path d="M29.3307 35.5435V37.7113C29.3257 38.1681 29.2034 38.6159 28.9755 39.0118C28.7477 39.4078 28.4219 39.7385 28.0295 39.9724C27.1964 40.5894 26.5187 41.3923 26.0503 42.3171C25.5819 43.2419 25.3356 44.2633 25.3311 45.3" stroke="white" stroke-width="2.66644" stroke-linecap="round" stroke-linejoin="round"/>
<path d="M34.6636 35.5435V37.7113C34.6686 38.1681 34.7909 38.6159 35.0188 39.0118C35.2466 39.4078 35.5724 39.7385 35.9648 39.9724C36.7979 40.5894 37.4755 41.3923 37.944 42.3171C38.4124 43.2419 38.6587 44.2633 38.6632 45.3" stroke="white" stroke-width="2.66644" stroke-linecap="round" stroke-linejoin="round"/>
<path d="M39.9966 27.9974H41.9964C42.8804 27.9974 43.7282 27.6462 44.3532 27.0212C44.9783 26.3961 45.3295 25.5483 45.3295 24.6643C45.3295 23.7804 44.9783 22.9326 44.3532 22.3075C43.7282 21.6825 42.8804 21.3313 41.9964 21.3313H39.9966" stroke="white" stroke-width="2.66644" stroke-linecap="round" stroke-linejoin="round"/>
<path d="M21.3313 45.3293H42.6628" stroke="white" stroke-width="2.66644" stroke-linecap="round" stroke-linejoin="round"/>
<path d="M23.9978 27.9976C23.9978 30.1191 24.8406 32.1538 26.3407 33.6539C27.8409 35.1541 29.8756 35.9969 31.9971 35.9969C34.1187 35.9969 36.1533 35.1541 37.6535 33.6539C39.1537 32.1538 39.9964 30.1191 39.9964 27.9976V19.9983C39.9964 19.6447 39.856 19.3056 39.6059 19.0555C39.3559 18.8055 39.0168 18.665 38.6632 18.665H25.331C24.9774 18.665 24.6383 18.8055 24.3883 19.0555C24.1383 19.3056 23.9978 19.6447 23.9978 19.9983V27.9976Z" stroke="white" stroke-width="2.66644" stroke-linecap="round" stroke-linejoin="round"/>
<path d="M23.9979 27.9974H21.9981C21.1141 27.9974 20.2663 27.6462 19.6413 27.0212C19.0162 26.3961 18.665 25.5483 18.665 24.6643C18.665 23.7804 19.0162 22.9326 19.6413 22.3075C20.2663 21.6825 21.1141 21.3313 21.9981 21.3313H23.9979" stroke="white" stroke-width="2.66644" stroke-linecap="round" stroke-linejoin="round"/>
<defs>
<linearGradient id="paint0_linear_9_7828" x1="0" y1="0" x2="63.9945" y2="63.9945" gradientUnits="userSpaceOnUse">
<stop stop-color="#9810FA"/>
<stop offset="1" stop-color="#E60076"/>
</linearGradient>
</defs>
</svg>
